<?xml version="1.0" encoding="utf-8"?>
<!-- Generator: Adobe Illustrator 26.0.0, SVG Export Plug-In . SVG Version: 6.00 Build 0)  -->
<svg version="1.1" id="Layer_1" xmlns="http://www.w3.org/2000/svg" xmlns:xlink="http://www.w3.org/1999/xlink" x="0px" y="0px"
	 viewBox="0 0 186.8 32.2" style="enable-background:new 0 0 186.8 32.2;" xml:space="preserve">
<style type="text/css">
	.st0{fill:#13132A;}
</style>
<path class="st0" d="M22.3,3.5h-18l0,0c0,2.8,2.3,5.1,5.1,5.1h5.8L4.3,24.2v4.7h12.9c2.8,0,5.1-2.3,5.1-5.1l0,0H11.4L22.3,8.2V3.5z"
	/>
<path class="st0" d="M39.1,18.7c0,7,4.6,10.5,10.5,10.5c5.9,0,10.8-3.5,10.8-10.5V3.5l0,0c-3.4,0-6.2,2.8-6.2,6.2v9
	c0,3-1.6,4.7-4.5,4.7c-2.9,0-4.4-1.7-4.4-4.7v-9c0-3.4-2.8-6.2-6.2-6.2l0,0V18.7z"/>
<path class="st0" d="M77.6,28.9L77.6,28.9c3.4,0,6.2-2.8,6.2-6.2v-9.1l5.7,15.3h5l5.7-15.2v9.1c0,3.4,2.8,6.2,6.2,6.2l0,0V3.5h-7.3
	L92,21.1L84.9,3.5h-7.3V28.9z"/>
<path class="st0" d="M139.5,24.4c0.9,2.7,3.4,4.5,6.3,4.5h1.8l-9.2-25.4h-7.2L122,28.9h1.7c2.8,0,5.4-1.8,6.3-4.5l0,0H139.5
	L139.5,24.4z M137.9,19.6h-6.3l3.1-9.3L137.9,19.6z"/>
<path class="st0" d="M176.6,11.8c0,2-1.1,3.2-3.4,3.2h-3.8V8.6h3.8C175.5,8.6,176.6,9.9,176.6,11.8z M163.2,3.5v25.4h6.2v-9.6h1.5
	l1.9,3.5c2.1,3.8,6,6.1,10.4,6.1l0,0l-5.9-10.1c3.9-1.2,5.6-4.2,5.6-7.4c0-4.4-3.1-8-9.3-8H163.2z"/>
</svg>
