<?xml version="1.0" encoding="utf-8"?>
<!-- Generator: Adobe Illustrator 26.0.0, SVG Export Plug-In . SVG Version: 6.00 Build 0)  -->
<svg version="1.1" id="Layer_1" xmlns="http://www.w3.org/2000/svg" xmlns:xlink="http://www.w3.org/1999/xlink" x="0px" y="0px"
	 viewBox="0 0 21 20" style="enable-background:new 0 0 21 20;" xml:space="preserve">
<style type="text/css">
	.st0{fill:none;stroke:#FFFFFF;stroke-width:2;stroke-linecap:round;stroke-linejoin:round;}
</style>
<path class="st0" d="M3.5,1.6h4l2,5L7,8.1c1.1,2.2,2.8,3.9,5,5l1.5-2.5l5,2v4c0,0.5-0.2,1-0.6,1.4c-0.4,0.4-0.9,0.6-1.4,0.6
	c-3.9-0.2-7.6-1.9-10.3-4.7C3.4,11.1,1.7,7.5,1.5,3.6c0-0.5,0.2-1,0.6-1.4C2.5,1.8,3,1.6,3.5,1.6"/>
<path class="st0" d="M13.5,4.6L13.5,4.6"/>
<path class="st0" d="M16.5,4.6L16.5,4.6"/>
<path class="st0" d="M19.5,4.6L19.5,4.6"/>
</svg>
