<?xml version="1.0" encoding="utf-8"?>
<!-- Generator: Adobe Illustrator 26.0.0, SVG Export Plug-In . SVG Version: 6.00 Build 0)  -->
<svg version="1.1" id="Layer_1" xmlns="http://www.w3.org/2000/svg" xmlns:xlink="http://www.w3.org/1999/xlink" x="0px" y="0px"
	 viewBox="0 0 19.9 22.1" style="enable-background:new 0 0 19.9 22.1;" xml:space="preserve">
<style type="text/css">
	.st0{fill:none;stroke:#072933;stroke-width:1.5;stroke-linecap:round;stroke-linejoin:round;}
</style>
<path class="st0" d="M13.9,20.7H6c-2.9,0-5.1-1.1-4.5-5.6l0.7-6C2.6,6.8,3.9,6,5.1,6h9.7c1.2,0,2.5,0.9,2.9,3.1l0.7,6
	C19,19.1,16.8,20.7,13.9,20.7z"/>
<path class="st0" d="M14,5.8c0-2.4-1.8-4.3-4.1-4.3l0,0C8.8,1.4,7.8,1.9,7,2.7C6.2,3.5,5.8,4.6,5.8,5.8l0,0"/>
<path class="st0" d="M12.7,10.3L12.7,10.3"/>
<path class="st0" d="M7.2,10.3L7.2,10.3"/>
</svg>
